<svg xmlns="http://www.w3.org/2000/svg" viewBox="0 0 512 512"><path d="M235.19,108.15H228V93.8H213.66v14.35H141.89V93.8H127.53v14.35h-7.18A14.4,14.4,0,0,0,106,122.51V237.34a14.4,14.4,0,0,0,14.35,14.35H235.19a14.4,14.4,0,0,0,14.35-14.35V122.51A14.4,14.4,0,0,0,235.19,108.15Zm0,129.19H120.35V144H235.19Z" fill="#fff"/><path d="M391.65,108.15h-7.18V93.8H370.11v14.35H298.34V93.8H284v14.35h-7.18a14.4,14.4,0,0,0-14.35,14.36V237.34a14.4,14.4,0,0,0,14.35,14.35H391.65A14.4,14.4,0,0,0,406,237.34V122.51A14.4,14.4,0,0,0,391.65,108.15Zm0,129.19H276.81V144H391.65Z" fill="#fff"/><path d="M235.19,274.66H228V260.31H213.66v14.35H141.89V260.31H127.53v14.35h-7.18A14.4,14.4,0,0,0,106,289V403.85a14.4,14.4,0,0,0,14.35,14.35H235.19a14.4,14.4,0,0,0,14.35-14.35V289A14.4,14.4,0,0,0,235.19,274.66Zm0,129.19H120.35v-93.3H235.19Z" fill="#fff"/><path d="M391.65,274.66h-7.18V260.31H370.11v14.35H298.34V260.31H284v14.35h-7.18A14.4,14.4,0,0,0,262.46,289V403.85a14.4,14.4,0,0,0,14.35,14.35H391.65A14.4,14.4,0,0,0,406,403.85V289A14.4,14.4,0,0,0,391.65,274.66Zm0,129.19H276.81v-93.3H391.65Z" fill="#fff"/></svg>